<svg xmlns="http://www.w3.org/2000/svg" width="16.993" height="17" viewBox="0 0 16.993 17"><g transform="translate(0 0.001)"><path d="M8.5,1.53c2.271,0,2.54.01,3.433.05a4.659,4.659,0,0,1,1.578.292,2.631,2.631,0,0,1,.976.634,2.665,2.665,0,0,1,.638.977,4.678,4.678,0,0,1,.292,1.578c.04.9.05,1.166.05,3.434s-.01,2.54-.05,3.434a4.659,4.659,0,0,1-.292,1.578,2.625,2.625,0,0,1-.634.976,2.667,2.667,0,0,1-.976.638,4.681,4.681,0,0,1-1.578.292c-.9.04-1.166.05-3.434.05s-2.54-.01-3.434-.05a4.659,4.659,0,0,1-1.578-.292,2.631,2.631,0,0,1-.977-.634,2.667,2.667,0,0,1-.638-.976,4.681,4.681,0,0,1-.292-1.578c-.04-.9-.05-1.166-.05-3.434s.01-2.54.05-3.434a4.659,4.659,0,0,1,.292-1.578,2.637,2.637,0,0,1,.634-.977,2.665,2.665,0,0,1,.977-.638A4.678,4.678,0,0,1,5.067,1.58c.893-.04,1.163-.05,3.434-.05ZM8.5,0C6.193,0,5.9.01,5,.049a6.206,6.206,0,0,0-2.062.4,4.142,4.142,0,0,0-1.507.983,4.162,4.162,0,0,0-.983,1.5,6.226,6.226,0,0,0-.4,2.062C.01,5.9,0,6.193,0,8.5S.01,11.1.05,12a6.206,6.206,0,0,0,.4,2.062,4.149,4.149,0,0,0,.983,1.507,4.155,4.155,0,0,0,1.5.98,6.226,6.226,0,0,0,2.062.4c.906.04,1.2.05,3.5.05s2.6-.01,3.5-.05a6.206,6.206,0,0,0,2.062-.4,4.345,4.345,0,0,0,2.484-2.484,6.226,6.226,0,0,0,.4-2.062c.04-.906.05-1.2.05-3.5s-.01-2.6-.05-3.5a6.206,6.206,0,0,0-.4-2.062,3.988,3.988,0,0,0-.973-1.511,4.155,4.155,0,0,0-1.5-.98,6.226,6.226,0,0,0-2.062-.4C11.1.009,10.81,0,8.5,0h0Z" transform="translate(0 0)" fill="#aaa"/><path d="M12.148,7.781a4.367,4.367,0,1,0,4.367,4.367A4.368,4.368,0,0,0,12.148,7.781Zm0,7.2a2.833,2.833,0,1,1,2.833-2.833A2.833,2.833,0,0,1,12.148,14.981Z" transform="translate(-3.647 -3.647)" fill="#aaa"/><path d="M24.663,6.557a1.02,1.02,0,1,1-1.02-1.02A1.02,1.02,0,0,1,24.663,6.557Z" transform="translate(-10.603 -2.595)" fill="#aaa"/></g></svg>