<svg xmlns="http://www.w3.org/2000/svg" width="20.991" height="21" viewBox="0 0 20.991 21"><g transform="translate(0 0.001)"><path d="M10.5,1.891c2.806,0,3.138.012,4.241.062a5.756,5.756,0,0,1,1.949.361A3.25,3.25,0,0,1,17.9,3.1,3.291,3.291,0,0,1,18.685,4.3a5.779,5.779,0,0,1,.361,1.949c.049,1.108.062,1.44.062,4.242s-.012,3.138-.062,4.242a5.756,5.756,0,0,1-.361,1.949,3.242,3.242,0,0,1-.784,1.206,3.294,3.294,0,0,1-1.206.788,5.782,5.782,0,0,1-1.949.361c-1.108.049-1.44.062-4.242.062s-3.138-.012-4.242-.062a5.756,5.756,0,0,1-1.949-.361,3.25,3.25,0,0,1-1.206-.784,3.294,3.294,0,0,1-.788-1.206,5.782,5.782,0,0,1-.361-1.949C1.91,13.632,1.9,13.3,1.9,10.5s.012-3.138.062-4.242A5.756,5.756,0,0,1,2.32,4.307,3.258,3.258,0,0,1,3.1,3.1,3.292,3.292,0,0,1,4.31,2.313a5.779,5.779,0,0,1,1.949-.361C7.362,1.9,7.7,1.891,10.5,1.891ZM10.5,0C7.65,0,7.294.012,6.174.061A7.666,7.666,0,0,0,3.626.55,5.117,5.117,0,0,0,1.764,1.764,5.141,5.141,0,0,0,.55,3.622,7.691,7.691,0,0,0,.062,6.169C.012,7.294,0,7.65,0,10.5s.012,3.208.062,4.328A7.666,7.666,0,0,0,.55,17.377a5.125,5.125,0,0,0,1.214,1.862,5.133,5.133,0,0,0,1.858,1.21,7.691,7.691,0,0,0,2.547.488c1.12.049,1.477.062,4.328.062s3.208-.012,4.328-.062a7.666,7.666,0,0,0,2.547-.488,5.368,5.368,0,0,0,3.068-3.068,7.691,7.691,0,0,0,.488-2.547c.049-1.12.062-1.477.062-4.328S20.979,7.3,20.93,6.177a7.666,7.666,0,0,0-.488-2.547,4.927,4.927,0,0,0-1.2-1.867A5.133,5.133,0,0,0,17.382.553,7.691,7.691,0,0,0,14.834.065C13.711.011,13.353,0,10.5,0h0Z" transform="translate(0)" fill="#e8e8e8"/><path d="M13.176,7.781a5.395,5.395,0,1,0,5.395,5.395A5.4,5.4,0,0,0,13.176,7.781Zm0,8.894a3.5,3.5,0,1,1,3.5-3.5A3.5,3.5,0,0,1,13.176,16.675Z" transform="translate(-2.674 -2.674)" fill="#e8e8e8"/><path d="M25.143,6.8a1.26,1.26,0,1,1-1.26-1.26A1.259,1.259,0,0,1,25.143,6.8Z" transform="translate(-7.775 -1.903)" fill="#e8e8e8"/></g></svg>