<svg xmlns="http://www.w3.org/2000/svg" width="40.001" height="26.832" viewBox="0 0 40.001 26.832"><path d="M-5259.071,8122.834-5263.55,8105h-.126l-4.648,17.833h-.845l-5.958-23.959c-.423-1.648-.635-2.07-1.69-2.2l-1.056-.085-.127-.59h7.818l-.127.59-1.394.085c-.93.042-1.353.465-1.142,1.268l4.9,20.324h.126l3.93-14.831-1.141-4.563c-.422-1.648-.634-2.07-1.69-2.2l-1.057-.085-.127-.59h7.691l-.127.59-1.394.085c-.929.042-1.354.465-1.142,1.268l4.9,20.324h.127l4.353-18.3c.634-2.577.423-3.169-1.226-3.3l-1.141-.085-.126-.59h17.521l.465,6.76h-.591l-.254-1.395c-.549-3-2.281-4.648-4.986-4.648h-.972v24.3c0,.423.168.676,1.479.718l1.774.086.126.591h-9.3l.126-.591,1.775-.086c1.311-.042,1.479-.295,1.479-.718v-24.3h-.676c-2.649,0-4.256,1.684-5.063,4.657-.053.213-.106.435-.161.667l-4.986,20.791Z" transform="translate(5278.001 -8096.002)" fill="#e8e8e8"/></svg>