<svg xmlns="http://www.w3.org/2000/svg" width="190.117" height="380.235" viewBox="0 0 190.117 380.235"><path d="M50,379.735v-1c104.28,0,189.118-84.838,189.118-189.118S154.28.5,50,.5v-1A191.521,191.521,0,0,1,88.315,3.363,189.079,189.079,0,0,1,156.3,31.969a191.164,191.164,0,0,1,51.351,51.351,190.131,190.131,0,0,1,17.529,32.294A189.164,189.164,0,0,1,236.255,151.3a191.967,191.967,0,0,1,0,76.63,189.165,189.165,0,0,1-11.078,35.688,190.14,190.14,0,0,1-17.529,32.294A191.164,191.164,0,0,1,156.3,347.266,189.375,189.375,0,0,1,50,379.735Z" transform="translate(-50 0.5)" fill="#484848" opacity="0.75"/></svg>