<svg xmlns="http://www.w3.org/2000/svg" width="742" height="1008" viewBox="0 0 742 1008"><g transform="translate(15588 -1514)"><rect width="742" height="1008" transform="translate(-15588 1514)" fill="#4a4a4a" opacity="0"/><path d="M295.077,1a296.259,296.259,0,0,0-59.268,5.975A292.461,292.461,0,0,0,130.657,51.223,294.938,294.938,0,0,0,24.11,180.609a292.6,292.6,0,0,0-17.135,55.2,296.955,296.955,0,0,0,0,118.536A292.462,292.462,0,0,0,51.223,459.5,294.938,294.938,0,0,0,180.609,566.045a292.6,292.6,0,0,0,55.2,17.135,296.955,296.955,0,0,0,118.536,0A292.462,292.462,0,0,0,459.5,538.931,294.938,294.938,0,0,0,566.045,409.545a292.6,292.6,0,0,0,17.135-55.2,296.955,296.955,0,0,0,0-118.536,292.461,292.461,0,0,0-44.249-105.153A294.938,294.938,0,0,0,409.545,24.11a292.6,292.6,0,0,0-55.2-17.135A296.258,296.258,0,0,0,295.077,1m0-1C458.044,0,590.154,132.111,590.154,295.077S458.044,590.154,295.077,590.154,0,458.044,0,295.077,132.111,0,295.077,0Z" transform="translate(-15512.011 1721.616)" fill="#e8e8e8"/></g></svg>