<svg xmlns="http://www.w3.org/2000/svg" width="18.571" height="20" viewBox="0 0 18.571 20"><path d="M1.429,18.571H4.643V15.357H1.429Zm3.929,0H8.929V15.357H5.357ZM1.429,14.643H4.643V11.071H1.429Zm3.929,0H8.929V11.071H5.357ZM1.429,10.357H4.643V7.143H1.429Zm8.214,8.214h3.571V15.357H9.643ZM5.357,10.357H8.929V7.143H5.357Zm8.571,8.214h3.214V15.357H13.929ZM9.643,14.643h3.571V11.071H9.643ZM5.714,5V1.786a.367.367,0,0,0-.357-.357H4.643a.367.367,0,0,0-.357.357V5a.367.367,0,0,0,.357.357h.714A.367.367,0,0,0,5.714,5Zm8.214,9.643h3.214V11.071H13.929ZM9.643,10.357h3.571V7.143H9.643Zm4.286,0h3.214V7.143H13.929ZM14.286,5V1.786a.367.367,0,0,0-.357-.357h-.714a.367.367,0,0,0-.357.357V5a.367.367,0,0,0,.357.357h.714A.367.367,0,0,0,14.286,5Zm4.286-.714V18.571A1.438,1.438,0,0,1,17.143,20H1.429A1.438,1.438,0,0,1,0,18.571V4.286A1.438,1.438,0,0,1,1.429,2.857H2.857V1.786A1.791,1.791,0,0,1,4.643,0h.714A1.791,1.791,0,0,1,7.143,1.786V2.857h4.286V1.786A1.791,1.791,0,0,1,13.214,0h.714a1.791,1.791,0,0,1,1.786,1.786V2.857h1.429A1.438,1.438,0,0,1,18.571,4.286Z" fill="#e8e8e8"/></svg>