<svg xmlns="http://www.w3.org/2000/svg" width="22.039" height="22.039" viewBox="0 0 22.039 22.039"><g transform="translate(3640.224 8907.269)"><g transform="translate(-3637.383 -8889.852)"><path d="M2934.249-1743.146a.956.956,0,0,0,.221-.642.864.864,0,0,0-.247-.592.863.863,0,0,0-.592-.247.955.955,0,0,0-.642.221.833.833,0,0,0-.3.616.911.911,0,0,0,.273.67.912.912,0,0,0,.67.273.832.832,0,0,0,.616-.3" transform="translate(-2932.689 1744.626)" fill="#e8e8e8"/></g><g transform="translate(-3634.921 -8887.993)"><path d="M3040.115-1663.546a.877.877,0,0,0,.032-.625.8.8,0,0,0-.373-.461.8.8,0,0,0-.589-.066.877.877,0,0,0-.51.364.772.772,0,0,0-.1.623.84.84,0,0,0,.414.52.84.84,0,0,0,.661.068.77.77,0,0,0,.469-.423" transform="translate(-3038.546 1664.726)" fill="#e8e8e8"/></g><g transform="translate(-3639.102 -8892.175)"><path d="M2859.262-1844.46a.771.771,0,0,0-.423.469.839.839,0,0,0,.069.661.84.84,0,0,0,.52.414.772.772,0,0,0,.623-.1.873.873,0,0,0,.363-.51.8.8,0,0,0-.066-.589.8.8,0,0,0-.461-.373.88.88,0,0,0-.625.032" transform="translate(-2858.801 1844.535)" fill="#e8e8e8"/></g><g transform="translate(-3632.448 -8893.734)"><path d="M3145.5-1910.978a.394.394,0,0,0,.091-.263.354.354,0,0,0-.1-.242.352.352,0,0,0-.242-.1.391.391,0,0,0-.263.091.342.342,0,0,0-.124.252.377.377,0,0,0,.112.275.376.376,0,0,0,.275.112.342.342,0,0,0,.252-.123" transform="translate(-3144.861 1911.584)" fill="#e8e8e8"/></g><g transform="translate(-3631.44 -8892.974)"><path d="M3188.869-1878.374a.359.359,0,0,0,.013-.256.327.327,0,0,0-.153-.189.325.325,0,0,0-.241-.027.359.359,0,0,0-.209.149.313.313,0,0,0-.042.255.344.344,0,0,0,.169.213.344.344,0,0,0,.271.028.314.314,0,0,0,.192-.173" transform="translate(-3188.227 1878.858)" fill="#e8e8e8"/></g><g transform="translate(-3630.262 -8892.518)"><path d="M3239.48-1858.9a.328.328,0,0,0-.053-.228.3.3,0,0,0-.184-.127.3.3,0,0,0-.22.039.327.327,0,0,0-.144.186.289.289,0,0,0,.029.234.314.314,0,0,0,.2.142.314.314,0,0,0,.244-.045.289.289,0,0,0,.125-.2" transform="translate(-3238.867 1859.264)" fill="#e8e8e8"/></g><g transform="translate(-3629.009 -8892.399)"><path d="M3293.3-1853.927a.3.3,0,0,0-.1-.186.275.275,0,0,0-.194-.064.273.273,0,0,0-.182.09.293.293,0,0,0-.077.2.262.262,0,0,0,.086.2.285.285,0,0,0,.212.072.284.284,0,0,0,.2-.1.264.264,0,0,0,.059-.206" transform="translate(-3292.748 1854.179)" fill="#e8e8e8"/></g><g transform="translate(-3627.781 -8892.625)"><path d="M3346.035-1863.717a.262.262,0,0,0-.135-.135.245.245,0,0,0-.183-.007.246.246,0,0,0-.136.124.267.267,0,0,0-.016.19.241.241,0,0,0,.125.147.255.255,0,0,0,.2.009.254.254,0,0,0,.146-.136.24.24,0,0,0,0-.192" transform="translate(-3345.554 1863.873)" fill="#e8e8e8"/></g><g transform="translate(-3626.674 -8893.179)"><path d="M3393.519-1887.563a.227.227,0,0,0-.306-.041.226.226,0,0,0-.049.305.218.218,0,0,0,.314.05.217.217,0,0,0,.042-.314" transform="translate(-3393.125 1887.646)" fill="#e8e8e8"/></g><g transform="translate(-3625.776 -8894.01)"><path d="M3432.065-1923.4a.2.2,0,0,0-.267.039.2.2,0,0,0,.034.268.189.189,0,0,0,.273-.034.19.19,0,0,0-.04-.273" transform="translate(-3431.76 1923.433)" fill="#e8e8e8"/></g><g transform="translate(-3625.153 -8895.053)"><path d="M3458.745-1968.258a.167.167,0,0,0-.208.1.167.167,0,0,0,.092.211.162.162,0,0,0,.215-.094.162.162,0,0,0-.1-.213" transform="translate(-3458.526 1968.266)" fill="#e8e8e8"/></g><g transform="translate(-3624.855 -8896.221)"><path d="M3471.457-2018.443a.138.138,0,0,0-.144.125.137.137,0,0,0,.122.146.134.134,0,0,0,.148-.124.134.134,0,0,0-.126-.146" transform="translate(-3471.313 2018.443)" fill="#e8e8e8"/></g><g transform="translate(-3624.903 -8897.414)"><path d="M3469.356-2069.786a.107.107,0,0,0-.081.126.107.107,0,0,0,.124.083.106.106,0,0,0,.084-.126.106.106,0,0,0-.127-.083" transform="translate(-3469.272 2069.789)" fill="#e8e8e8"/></g><g transform="translate(-3625.291 -8898.537)"><path d="M3452.645-2118.064a.078.078,0,0,0-.031.105.079.079,0,0,0,.1.032.078.078,0,0,0,.032-.106.077.077,0,0,0-.106-.032" transform="translate(-3452.604 2118.074)" fill="#e8e8e8"/></g><g transform="translate(-3626.056 -8899.566)"><path d="M3419.732-2162.3a.049.049,0,0,0,0,.069.049.049,0,0,0,.07,0,.049.049,0,0,0,0-.07.049.049,0,0,0-.07,0" transform="translate(-3419.718 2162.311)" fill="#e8e8e8"/></g><g transform="translate(-3633.153 -8894.687)"><path d="M3114.78-1952.476a.318.318,0,0,0-.174.192.344.344,0,0,0,.028.271.343.343,0,0,0,.213.169.316.316,0,0,0,.255-.043.356.356,0,0,0,.149-.208.327.327,0,0,0-.026-.241.327.327,0,0,0-.189-.153.358.358,0,0,0-.255.013" transform="translate(-3114.59 1952.506)" fill="#e8e8e8"/></g><g transform="translate(-3633.551 -8895.808)"><path d="M3097.73-2000.715a.29.29,0,0,0-.2.125.312.312,0,0,0-.045.243.314.314,0,0,0,.142.2.291.291,0,0,0,.234.029.328.328,0,0,0,.186-.144.3.3,0,0,0,.039-.22.3.3,0,0,0-.127-.184.328.328,0,0,0-.229-.053" transform="translate(-3097.477 2000.718)" fill="#e8e8e8"/></g><g transform="translate(-3633.612 -8897.003)"><path d="M3095.139-2052.1a.264.264,0,0,0-.206.059.285.285,0,0,0-.1.2.284.284,0,0,0,.072.211.264.264,0,0,0,.2.086.3.3,0,0,0,.2-.077.273.273,0,0,0,.09-.182.273.273,0,0,0-.064-.193.294.294,0,0,0-.186-.1" transform="translate(-3094.832 2052.106)" fill="#e8e8e8"/></g><g transform="translate(-3633.329 -8898.175)"><path d="M3107.363-2102.427a.238.238,0,0,0-.192,0,.25.25,0,0,0-.136.146.255.255,0,0,0,.009.2.238.238,0,0,0,.147.124.263.263,0,0,0,.19-.015.246.246,0,0,0,.124-.135.245.245,0,0,0-.007-.183.262.262,0,0,0-.135-.135" transform="translate(-3107.019 2102.448)" fill="#e8e8e8"/></g><g transform="translate(-3632.719 -8899.222)"><path d="M3133.611-2147.471a.218.218,0,0,0-.315.042.218.218,0,0,0,.051.314.227.227,0,0,0,.305-.049.227.227,0,0,0-.042-.307" transform="translate(-3133.252 2147.52)" fill="#e8e8e8"/></g><g transform="translate(-3631.828 -8900.064)"><path d="M3171.874-2183.629a.189.189,0,0,0-.272-.04.19.19,0,0,0-.034.273.2.2,0,0,0,.268.033.2.2,0,0,0,.039-.267" transform="translate(-3171.523 2183.71)" fill="#e8e8e8"/></g><g transform="translate(-3630.729 -8900.629)"><path d="M3219.117-2207.9a.161.161,0,0,0-.213-.1.162.162,0,0,0-.094.215.167.167,0,0,0,.21.092.166.166,0,0,0,.1-.209" transform="translate(-3218.797 2208.006)" fill="#e8e8e8"/></g><g transform="translate(-3629.504 -8900.869)"><path d="M3271.731-2218.184a.134.134,0,0,0-.146-.126.133.133,0,0,0-.124.148.137.137,0,0,0,.145.122.137.137,0,0,0,.124-.144" transform="translate(-3271.461 2218.311)" fill="#e8e8e8"/></g><g transform="translate(-3628.253 -8900.764)"><path d="M3325.472-2213.667a.106.106,0,0,0-.083-.128.106.106,0,0,0-.126.084.109.109,0,0,0,.083.125.107.107,0,0,0,.125-.082" transform="translate(-3325.262 2213.796)" fill="#e8e8e8"/></g><g transform="translate(-3627.072 -8900.319)"><path d="M3376.17-2194.565a.077.077,0,0,0-.031-.106.078.078,0,0,0-.106.033.078.078,0,0,0,.033.1.078.078,0,0,0,.1-.031" transform="translate(-3376.023 2194.68)" fill="#e8e8e8"/></g><g transform="translate(-3633.304 -8893.062)"><path d="M3108.888-1881.878a.491.491,0,0,0,.113-.329.438.438,0,0,0-.126-.3.439.439,0,0,0-.3-.126.49.49,0,0,0-.329.113.425.425,0,0,0-.153.315.467.467,0,0,0,.139.343.468.468,0,0,0,.343.14.427.427,0,0,0,.315-.154" transform="translate(-3108.09 1882.636)" fill="#e8e8e8"/></g><g transform="translate(-3632.044 -8892.109)"><path d="M3163.063-1841.112a.447.447,0,0,0,.017-.32.409.409,0,0,0-.191-.236.407.407,0,0,0-.3-.034.447.447,0,0,0-.261.186.392.392,0,0,0-.053.319.428.428,0,0,0,.211.266.43.43,0,0,0,.338.035.393.393,0,0,0,.24-.216" transform="translate(-3162.26 1841.716)" fill="#e8e8e8"/></g><g transform="translate(-3630.571 -8891.54)"><path d="M3226.34-1816.781a.408.408,0,0,0-.066-.286.371.371,0,0,0-.229-.159.372.372,0,0,0-.275.048.4.4,0,0,0-.18.232.361.361,0,0,0,.037.293.392.392,0,0,0,.253.178.4.4,0,0,0,.305-.056.362.362,0,0,0,.155-.251" transform="translate(-3225.574 1817.233)" fill="#e8e8e8"/></g><g transform="translate(-3629.005 -8891.393)"><path d="M3293.621-1810.56a.367.367,0,0,0-.129-.232.337.337,0,0,0-.241-.081.341.341,0,0,0-.229.113.366.366,0,0,0-.1.248.33.33,0,0,0,.108.245.354.354,0,0,0,.264.09.356.356,0,0,0,.25-.125.329.329,0,0,0,.073-.258" transform="translate(-3292.926 1810.873)" fill="#e8e8e8"/></g><g transform="translate(-3627.469 -8891.674)"><path d="M3359.531-1822.8a.329.329,0,0,0-.169-.168.306.306,0,0,0-.229-.009.305.305,0,0,0-.169.155.325.325,0,0,0-.02.238.3.3,0,0,0,.155.183.319.319,0,0,0,.249.011.32.32,0,0,0,.183-.17.3.3,0,0,0,0-.24" transform="translate(-3358.93 1822.995)" fill="#e8e8e8"/></g><g transform="translate(-3626.087 -8892.365)"><path d="M3418.883-1852.594a.287.287,0,0,0-.185-.1.273.273,0,0,0-.2.05.272.272,0,0,0-.105.175.286.286,0,0,0,.044.207.264.264,0,0,0,.178.116.282.282,0,0,0,.214-.053.279.279,0,0,0,.112-.189.262.262,0,0,0-.059-.2" transform="translate(-3418.39 1852.699)" fill="#e8e8e8"/></g><g transform="translate(-3624.963 -8893.406)"><path d="M3467.093-1897.409a.246.246,0,0,0-.334.049.246.246,0,0,0,.042.334.237.237,0,0,0,.342-.043.236.236,0,0,0-.05-.341" transform="translate(-3466.712 1897.453)" fill="#e8e8e8"/></g><g transform="translate(-3624.185 -8894.709)"><path d="M3500.414-1953.465a.209.209,0,0,0-.261.12.208.208,0,0,0,.115.263.2.2,0,0,0,.269-.117.2.2,0,0,0-.122-.266" transform="translate(-3500.14 1953.476)" fill="#e8e8e8"/></g><g transform="translate(-3623.813 -8896.168)"><path d="M3516.3-2016.195a.171.171,0,0,0-.179.156.171.171,0,0,0,.153.182.168.168,0,0,0,.185-.155.168.168,0,0,0-.159-.182" transform="translate(-3516.12 2016.195)" fill="#e8e8e8"/></g><g transform="translate(-3623.873 -8897.661)"><path d="M3513.67-2080.377a.135.135,0,0,0-.1.157.135.135,0,0,0,.156.1.133.133,0,0,0,.1-.158.132.132,0,0,0-.159-.1" transform="translate(-3513.565 2080.381)" fill="#e8e8e8"/></g><g transform="translate(-3624.357 -8899.065)"><path d="M3492.817-2140.739a.1.1,0,0,0-.04.132.1.1,0,0,0,.131.041.1.1,0,0,0,.041-.132.1.1,0,0,0-.133-.04" transform="translate(-3492.766 2140.751)" fill="#e8e8e8"/></g><g transform="translate(-3625.296 -8900.333)"><path d="M3452.4-2195.262a.062.062,0,0,0,0,.087.063.063,0,0,0,.088,0,.063.063,0,0,0,0-.088.063.063,0,0,0-.088,0" transform="translate(-3452.381 2195.28)" fill="#e8e8e8"/></g><g transform="translate(-3634.184 -8894.251)"><path d="M3070.459-1933.733a.4.4,0,0,0-.216.24.43.43,0,0,0,.036.338.43.43,0,0,0,.267.212.4.4,0,0,0,.318-.053.449.449,0,0,0,.186-.261.407.407,0,0,0-.034-.3.406.406,0,0,0-.236-.19.448.448,0,0,0-.321.016" transform="translate(-3070.223 1933.772)" fill="#e8e8e8"/></g><g transform="translate(-3634.683 -8895.652)"><path d="M3049.125-1994.034a.363.363,0,0,0-.251.156.39.39,0,0,0-.056.3.391.391,0,0,0,.178.253.363.363,0,0,0,.293.037.407.407,0,0,0,.231-.18.374.374,0,0,0,.049-.275.376.376,0,0,0-.159-.23.408.408,0,0,0-.285-.066" transform="translate(-3048.808 1994.039)" fill="#e8e8e8"/></g><g transform="translate(-3634.758 -8897.147)"><path d="M3045.932-2058.289a.33.33,0,0,0-.258.073.354.354,0,0,0-.125.25.354.354,0,0,0,.09.264.33.33,0,0,0,.245.108.368.368,0,0,0,.248-.1.341.341,0,0,0,.113-.228.339.339,0,0,0-.081-.241.367.367,0,0,0-.232-.129" transform="translate(-3045.548 2058.292)" fill="#e8e8e8"/></g><g transform="translate(-3634.405 -8898.61)"><path d="M3061.187-2121.181a.3.3,0,0,0-.24,0,.317.317,0,0,0-.169.183.318.318,0,0,0,.01.249.3.3,0,0,0,.184.156.329.329,0,0,0,.238-.02.3.3,0,0,0,.155-.169.3.3,0,0,0-.009-.229.325.325,0,0,0-.168-.169" transform="translate(-3060.757 2121.207)" fill="#e8e8e8"/></g><g transform="translate(-3633.642 -8899.922)"><path d="M3094-2177.5a.266.266,0,0,0-.2-.06.279.279,0,0,0-.188.113.28.28,0,0,0-.053.214.264.264,0,0,0,.116.178.289.289,0,0,0,.207.044.273.273,0,0,0,.175-.105.274.274,0,0,0,.05-.2.288.288,0,0,0-.1-.185" transform="translate(-3093.552 2177.566)" fill="#e8e8e8"/></g><g transform="translate(-3632.53 -8900.973)"><path d="M3141.813-2222.674a.237.237,0,0,0-.341-.05.237.237,0,0,0-.043.342.245.245,0,0,0,.334.042.246.246,0,0,0,.049-.334" transform="translate(-3141.375 2222.775)" fill="#e8e8e8"/></g><g transform="translate(-3631.155 -8901.68)"><path d="M3200.888-2253.014a.2.2,0,0,0-.266-.122.2.2,0,0,0-.117.269.209.209,0,0,0,.263.115.209.209,0,0,0,.12-.261" transform="translate(-3200.488 2253.151)" fill="#e8e8e8"/></g><g transform="translate(-3629.624 -8901.978)"><path d="M3266.625-2265.856a.166.166,0,0,0-.182-.158.167.167,0,0,0-.155.185.171.171,0,0,0,.182.153.171.171,0,0,0,.155-.18" transform="translate(-3266.286 2266.015)" fill="#e8e8e8"/></g><g transform="translate(-3628.06 -8901.848)"><path d="M3333.826-2260.239a.132.132,0,0,0-.1-.159.132.132,0,0,0-.158.105.135.135,0,0,0,.1.156.134.134,0,0,0,.157-.1" transform="translate(-3333.563 2260.401)" fill="#e8e8e8"/></g><g transform="translate(-3626.584 -8901.291)"><path d="M3397.179-2236.34a.1.1,0,0,0-.04-.133.1.1,0,0,0-.132.041.1.1,0,0,0,.04.131.1.1,0,0,0,.132-.04" transform="translate(-3396.996 2236.485)" fill="#e8e8e8"/></g><g transform="translate(-3634.374 -8892.22)"><path d="M3063.085-1845.494a.611.611,0,0,0,.142-.411.551.551,0,0,0-.158-.378.552.552,0,0,0-.379-.158.613.613,0,0,0-.411.142.531.531,0,0,0-.192.394.584.584,0,0,0,.174.429.585.585,0,0,0,.429.175.534.534,0,0,0,.394-.192" transform="translate(-3062.088 1846.442)" fill="#e8e8e8"/></g><g transform="translate(-3632.799 -8891.03)"><path d="M3130.813-1794.541a.564.564,0,0,0,.021-.4.512.512,0,0,0-.238-.295.51.51,0,0,0-.377-.042.559.559,0,0,0-.326.233.493.493,0,0,0-.067.4.535.535,0,0,0,.265.333.535.535,0,0,0,.422.044.5.5,0,0,0,.3-.27" transform="translate(-3129.81 1795.296)" fill="#e8e8e8"/></g><g transform="translate(-3630.958 -8890.317)"><path d="M3209.9-1764.116a.507.507,0,0,0-.083-.357.468.468,0,0,0-.287-.2.466.466,0,0,0-.344.061.51.51,0,0,0-.225.289.454.454,0,0,0,.046.366.491.491,0,0,0,.316.223.492.492,0,0,0,.381-.07.454.454,0,0,0,.195-.314" transform="translate(-3208.938 1764.682)" fill="#e8e8e8"/></g><g transform="translate(-3629 -8890.134)"><path d="M3294.005-1756.341a.456.456,0,0,0-.162-.291.423.423,0,0,0-.3-.1.424.424,0,0,0-.285.141.457.457,0,0,0-.121.31.415.415,0,0,0,.135.307.445.445,0,0,0,.33.113.444.444,0,0,0,.312-.157.412.412,0,0,0,.092-.322" transform="translate(-3293.136 1756.733)" fill="#e8e8e8"/></g><g transform="translate(-3627.08 -8890.485)"><path d="M3376.415-1771.649a.407.407,0,0,0-.211-.211.382.382,0,0,0-.287-.011.384.384,0,0,0-.211.194.413.413,0,0,0-.025.3.375.375,0,0,0,.194.229.4.4,0,0,0,.312.014.4.4,0,0,0,.229-.212.373.373,0,0,0,0-.3" transform="translate(-3375.665 1771.893)" fill="#e8e8e8"/></g><g transform="translate(-3625.352 -8891.35)"><path d="M3450.6-1808.893a.36.36,0,0,0-.232-.127.34.34,0,0,0-.247.063.339.339,0,0,0-.132.219.364.364,0,0,0,.055.259.33.33,0,0,0,.222.145.351.351,0,0,0,.267-.066.353.353,0,0,0,.141-.236.335.335,0,0,0-.074-.255" transform="translate(-3449.99 1809.023)" fill="#e8e8e8"/></g><g transform="translate(-3623.947 -8892.649)"><path d="M3510.847-1864.9a.312.312,0,0,0-.225-.051.3.3,0,0,0-.192.113.3.3,0,0,0-.057.216.309.309,0,0,0,.109.2.288.288,0,0,0,.221.066.3.3,0,0,0,.206-.119.307.307,0,0,0,.06-.231.29.29,0,0,0-.123-.2" transform="translate(-3510.371 1864.955)" fill="#e8e8e8"/></g><g transform="translate(-3622.975 -8894.278)"><path d="M3552.5-1934.977a.261.261,0,0,0-.326.15.261.261,0,0,0,.144.329.253.253,0,0,0,.335-.146.253.253,0,0,0-.153-.333" transform="translate(-3552.159 1934.991)" fill="#e8e8e8"/></g><g transform="translate(-3622.511 -8896.103)"><path d="M3572.357-2013.4a.214.214,0,0,0-.224.194.215.215,0,0,0,.191.227.209.209,0,0,0,.231-.194.209.209,0,0,0-.2-.228" transform="translate(-3572.132 2013.397)" fill="#e8e8e8"/></g><g transform="translate(-3622.585 -8897.969)"><path d="M3569.073-2093.623a.168.168,0,0,0-.128.2.168.168,0,0,0,.2.13.166.166,0,0,0,.131-.2.165.165,0,0,0-.2-.129" transform="translate(-3568.941 2093.627)" fill="#e8e8e8"/></g><g transform="translate(-3623.19 -8899.724)"><path d="M3542.988-2169.06a.123.123,0,0,0-.049.164.123.123,0,0,0,.164.051.121.121,0,0,0,.051-.166.121.121,0,0,0-.166-.05" transform="translate(-3542.925 2169.076)" fill="#e8e8e8"/></g><g transform="translate(-3624.346 -8901.292)"><path d="M3493.24-2236.478a.078.078,0,0,0,0,.109.078.078,0,0,0,.109,0,.078.078,0,0,0,0-.11.078.078,0,0,0-.109,0" transform="translate(-3493.217 2236.5)" fill="#e8e8e8"/></g><g transform="translate(-3635.474 -8893.707)"><path d="M3015.078-1910.327a.491.491,0,0,0-.271.3.536.536,0,0,0,.044.423.537.537,0,0,0,.333.265.493.493,0,0,0,.4-.067.559.559,0,0,0,.233-.326.513.513,0,0,0-.042-.377.513.513,0,0,0-.3-.238.56.56,0,0,0-.4.021" transform="translate(-3014.782 1910.375)" fill="#e8e8e8"/></g><g transform="translate(-3636.097 -8895.459)"><path d="M2988.384-1985.689a.454.454,0,0,0-.313.195.5.5,0,0,0-.07.381.493.493,0,0,0,.223.316.454.454,0,0,0,.366.046.51.51,0,0,0,.29-.225.467.467,0,0,0,.061-.344.467.467,0,0,0-.2-.287.509.509,0,0,0-.357-.083" transform="translate(-2987.988 1985.695)" fill="#e8e8e8"/></g><g transform="translate(-3636.192 -8897.326)"><path d="M2984.374-2066a.412.412,0,0,0-.322.092.445.445,0,0,0-.156.312.443.443,0,0,0,.113.33.412.412,0,0,0,.306.135.457.457,0,0,0,.31-.121.425.425,0,0,0,.141-.285.427.427,0,0,0-.1-.3.463.463,0,0,0-.291-.161" transform="translate(-2983.895 2066.007)" fill="#e8e8e8"/></g><g transform="translate(-3635.75 -8899.156)"><path d="M3003.458-2144.622a.372.372,0,0,0-.3,0,.4.4,0,0,0-.212.229.4.4,0,0,0,.014.312.373.373,0,0,0,.229.194.412.412,0,0,0,.3-.025.38.38,0,0,0,.193-.211.381.381,0,0,0-.011-.286.409.409,0,0,0-.211-.211" transform="translate(-3002.921 2144.654)" fill="#e8e8e8"/></g><g transform="translate(-3634.796 -8900.794)"><path d="M3044.474-2215.019a.329.329,0,0,0-.255-.074.35.35,0,0,0-.236.14.352.352,0,0,0-.066.267.33.33,0,0,0,.146.223.359.359,0,0,0,.258.055.339.339,0,0,0,.218-.132.34.34,0,0,0,.063-.247.362.362,0,0,0-.127-.231" transform="translate(-3043.912 2215.096)" fill="#e8e8e8"/></g><g transform="translate(-3633.406 -8902.108)"><path d="M3104.245-2271.5a.288.288,0,0,0-.2-.123.3.3,0,0,0-.23.06.3.3,0,0,0-.12.206.29.29,0,0,0,.066.222.315.315,0,0,0,.2.109.3.3,0,0,0,.216-.057.3.3,0,0,0,.113-.193.314.314,0,0,0-.051-.225" transform="translate(-3103.697 2271.621)" fill="#e8e8e8"/></g><g transform="translate(-3631.687 -8902.991)"><path d="M3178.092-2309.417a.252.252,0,0,0-.332-.153.253.253,0,0,0-.147.335.26.26,0,0,0,.329.144.26.26,0,0,0,.15-.326" transform="translate(-3177.593 2309.588)" fill="#e8e8e8"/></g><g transform="translate(-3629.774 -8903.366)"><path d="M3260.269-2325.476a.209.209,0,0,0-.228-.2.209.209,0,0,0-.194.231.214.214,0,0,0,.227.191.214.214,0,0,0,.194-.225" transform="translate(-3259.846 2325.674)" fill="#e8e8e8"/></g><g transform="translate(-3627.818 -8903.203)"><path d="M3344.266-2318.443a.165.165,0,0,0-.129-.2.166.166,0,0,0-.2.132.169.169,0,0,0,.13.2.168.168,0,0,0,.2-.127" transform="translate(-3343.937 2318.646)" fill="#e8e8e8"/></g><g transform="translate(-3625.973 -8902.508)"><path d="M3423.479-2288.593a.121.121,0,0,0-.049-.166.122.122,0,0,0-.166.051.124.124,0,0,0,.051.164.123.123,0,0,0,.164-.05" transform="translate(-3423.25 2288.774)" fill="#e8e8e8"/></g><g transform="translate(-3635.711 -8891.167)"><path d="M3005.822-1800a.764.764,0,0,0,.177-.514.691.691,0,0,0-.2-.473.691.691,0,0,0-.473-.2.764.764,0,0,0-.514.177.666.666,0,0,0-.24.493.728.728,0,0,0,.219.536.73.73,0,0,0,.536.219.667.667,0,0,0,.493-.24" transform="translate(-3004.574 1801.182)" fill="#e8e8e8"/></g><g transform="translate(-3633.742 -8889.681)"><path d="M3090.5-1736.32a.7.7,0,0,0,.026-.5.638.638,0,0,0-.3-.369.637.637,0,0,0-.471-.053.7.7,0,0,0-.408.291.618.618,0,0,0-.083.5.675.675,0,0,0,.331.416.674.674,0,0,0,.529.055.616.616,0,0,0,.375-.338" transform="translate(-3089.249 1737.265)" fill="#e8e8e8"/></g><g transform="translate(-3631.441 -8888.79)"><path d="M3189.363-1698.29a.638.638,0,0,0-.1-.446.582.582,0,0,0-.359-.248.584.584,0,0,0-.429.076.639.639,0,0,0-.281.362.567.567,0,0,0,.058.458.614.614,0,0,0,.4.278.613.613,0,0,0,.476-.088.567.567,0,0,0,.244-.392" transform="translate(-3188.166 1698.998)" fill="#e8e8e8"/></g><g transform="translate(-3628.994 -8888.559)"><path d="M3294.464-1688.568a.575.575,0,0,0-.2-.363.53.53,0,0,0-.377-.126.53.53,0,0,0-.356.176.574.574,0,0,0-.151.387.518.518,0,0,0,.169.383.552.552,0,0,0,.413.141.556.556,0,0,0,.391-.2.517.517,0,0,0,.115-.4" transform="translate(-3293.377 1689.058)" fill="#e8e8e8"/></g><g transform="translate(-3626.594 -8889)"><path d="M3397.491-1707.7a.513.513,0,0,0-.264-.263.479.479,0,0,0-.358-.014.477.477,0,0,0-.264.242.512.512,0,0,0-.031.372.465.465,0,0,0,.242.286.5.5,0,0,0,.39.017.494.494,0,0,0,.285-.266.463.463,0,0,0,0-.375" transform="translate(-3396.552 1708.006)" fill="#e8e8e8"/></g><g transform="translate(-3624.434 -8890.079)"><path d="M3490.232-1754.262a.448.448,0,0,0-.289-.159.424.424,0,0,0-.309.078.424.424,0,0,0-.165.273.451.451,0,0,0,.069.323.413.413,0,0,0,.278.181.44.44,0,0,0,.334-.083.438.438,0,0,0,.176-.3.412.412,0,0,0-.093-.319" transform="translate(-3489.463 1754.425)" fill="#e8e8e8"/></g><g transform="translate(-3622.678 -8891.705)"><path d="M3565.534-1824.268a.39.39,0,0,0-.28-.064.368.368,0,0,0-.24.141.368.368,0,0,0-.072.27.391.391,0,0,0,.137.253.362.362,0,0,0,.277.083.38.38,0,0,0,.257-.149.379.379,0,0,0,.075-.288.362.362,0,0,0-.153-.245" transform="translate(-3564.938 1824.336)" fill="#e8e8e8"/></g><g transform="translate(-3621.462 -8893.741)"><path d="M3617.638-1911.878a.326.326,0,0,0-.408.188.326.326,0,0,0,.18.411.316.316,0,0,0,.419-.183.316.316,0,0,0-.191-.416" transform="translate(-3617.21 1911.895)" fill="#e8e8e8"/></g><g transform="translate(-3620.882 -8896.021)"><path d="M3642.446-2009.9a.268.268,0,0,0-.281.243.268.268,0,0,0,.239.284.261.261,0,0,0,.289-.242.261.261,0,0,0-.247-.285" transform="translate(-3642.165 2009.902)" fill="#e8e8e8"/></g><g transform="translate(-3620.975 -8898.354)"><path d="M3638.329-2110.172a.21.21,0,0,0-.159.246.211.211,0,0,0,.244.163.206.206,0,0,0,.164-.247.206.206,0,0,0-.249-.162" transform="translate(-3638.165 2110.177)" fill="#e8e8e8"/></g><g transform="translate(-3621.731 -8900.548)"><path d="M3605.738-2204.487a.153.153,0,0,0-.062.206.154.154,0,0,0,.205.063.152.152,0,0,0,.064-.207.152.152,0,0,0-.208-.062" transform="translate(-3605.659 2204.506)" fill="#e8e8e8"/></g><g transform="translate(-3623.159 -8902.49)"><path d="M3544.271-2287.991a.1.1,0,0,0,0,.136.1.1,0,0,0,.136,0,.1.1,0,0,0,0-.136.1.1,0,0,0-.136,0" transform="translate(-3544.243 2288.02)" fill="#e8e8e8"/></g><g transform="translate(-3637.087 -8893.025)"><path d="M2945.814-1881.051a.616.616,0,0,0-.338.375.671.671,0,0,0,.054.529.671.671,0,0,0,.416.331.616.616,0,0,0,.5-.083.7.7,0,0,0,.291-.408.637.637,0,0,0-.053-.471.637.637,0,0,0-.369-.3.7.7,0,0,0-.5.026" transform="translate(-2945.445 1881.111)" fill="#e8e8e8"/></g><g transform="translate(-3637.865 -8895.216)"><path d="M2912.474-1975.259a.568.568,0,0,0-.392.244.614.614,0,0,0-.087.475.614.614,0,0,0,.278.4.567.567,0,0,0,.458.058.638.638,0,0,0,.362-.281.58.58,0,0,0,.075-.429.583.583,0,0,0-.248-.359.637.637,0,0,0-.446-.1" transform="translate(-2911.979 1975.265)" fill="#e8e8e8"/></g><g transform="translate(-3637.984 -8897.552)"><path d="M2907.476-2075.662a.518.518,0,0,0-.4.115.551.551,0,0,0-.2.39.551.551,0,0,0,.141.413.518.518,0,0,0,.383.169.576.576,0,0,0,.387-.151.533.533,0,0,0,.176-.357.53.53,0,0,0-.126-.377.574.574,0,0,0-.363-.2" transform="translate(-2906.877 2075.667)" fill="#e8e8e8"/></g><g transform="translate(-3637.431 -8899.837)"><path d="M2931.3-2173.923a.465.465,0,0,0-.375,0,.5.5,0,0,0-.265.286.5.5,0,0,0,.017.39.465.465,0,0,0,.286.242.509.509,0,0,0,.372-.031.474.474,0,0,0,.242-.263.479.479,0,0,0-.013-.358.511.511,0,0,0-.264-.264" transform="translate(-2930.625 2173.963)" fill="#e8e8e8"/></g><g transform="translate(-3636.239 -8901.885)"><path d="M2982.587-2261.912a.41.41,0,0,0-.318-.093.434.434,0,0,0-.3.175.441.441,0,0,0-.083.333.414.414,0,0,0,.181.278.45.45,0,0,0,.323.068.425.425,0,0,0,.273-.165.424.424,0,0,0,.078-.309.449.449,0,0,0-.159-.29" transform="translate(-2981.885 2262.008)" fill="#e8e8e8"/></g><g transform="translate(-3634.501 -8903.529)"><path d="M3057.282-2332.512a.361.361,0,0,0-.245-.153.38.38,0,0,0-.288.075.38.38,0,0,0-.149.257.359.359,0,0,0,.083.277.389.389,0,0,0,.253.137.368.368,0,0,0,.27-.072.369.369,0,0,0,.141-.24.391.391,0,0,0-.064-.281" transform="translate(-3056.597 2332.669)" fill="#e8e8e8"/></g><g transform="translate(-3632.353 -8904.632)"><path d="M3149.59-2379.922a.316.316,0,0,0-.416-.191.315.315,0,0,0-.184.419.326.326,0,0,0,.411.18.326.326,0,0,0,.188-.407" transform="translate(-3148.965 2380.135)" fill="#e8e8e8"/></g><g transform="translate(-3629.961 -8905.101)"><path d="M3252.325-2400.008a.261.261,0,0,0-.285-.247.261.261,0,0,0-.242.289.268.268,0,0,0,.284.239.269.269,0,0,0,.243-.281" transform="translate(-3251.796 2400.256)" fill="#e8e8e8"/></g><g transform="translate(-3627.517 -8904.896)"><path d="M3357.315-2391.2a.207.207,0,0,0-.161-.249.207.207,0,0,0-.247.165.211.211,0,0,0,.163.244.21.21,0,0,0,.246-.159" transform="translate(-3356.903 2391.456)" fill="#e8e8e8"/></g><g transform="translate(-3625.211 -8904.027)"><path d="M3456.32-2353.875a.151.151,0,0,0-.062-.207.151.151,0,0,0-.206.064.153.153,0,0,0,.063.205.154.154,0,0,0,.206-.062" transform="translate(-3456.035 2354.1)" fill="#e8e8e8"/></g><g transform="translate(-3632.045 -8886.881)"><path d="M3163.7-1616.016a.8.8,0,0,0-.13-.558.731.731,0,0,0-.449-.31.729.729,0,0,0-.536.095.792.792,0,0,0-.351.453.706.706,0,0,0,.072.572.765.765,0,0,0,.495.348.766.766,0,0,0,.595-.109.707.707,0,0,0,.3-.49" transform="translate(-3162.202 1616.9)" fill="#e8e8e8"/></g><g transform="translate(-3628.986 -8886.592)"><path d="M3295.09-1603.859a.717.717,0,0,0-.252-.454.664.664,0,0,0-.472-.158.663.663,0,0,0-.446.22.718.718,0,0,0-.188.484.647.647,0,0,0,.21.479.7.7,0,0,0,.517.176.694.694,0,0,0,.488-.245.647.647,0,0,0,.144-.5" transform="translate(-3293.732 1604.472)" fill="#e8e8e8"/></g><g transform="translate(-3625.987 -8887.143)"><path d="M3423.839-1627.769a.64.64,0,0,0-.331-.329.6.6,0,0,0-.448-.017.6.6,0,0,0-.33.3.64.64,0,0,0-.039.465.582.582,0,0,0,.3.358.619.619,0,0,0,.487.021.622.622,0,0,0,.358-.332.586.586,0,0,0,0-.469" transform="translate(-3422.665 1628.151)" fill="#e8e8e8"/></g><g transform="translate(-3623.286 -8888.492)"><path d="M3539.769-1685.969a.563.563,0,0,0-.362-.2.529.529,0,0,0-.386.1.531.531,0,0,0-.206.342.566.566,0,0,0,.085.4.519.519,0,0,0,.348.227.549.549,0,0,0,.417-.1.55.55,0,0,0,.219-.369.519.519,0,0,0-.116-.4" transform="translate(-3538.807 1686.172)" fill="#e8e8e8"/></g><g transform="translate(-3621.091 -8890.524)"><path d="M3633.909-1773.479a.486.486,0,0,0-.35-.08.462.462,0,0,0-.3.176.461.461,0,0,0-.089.337.486.486,0,0,0,.171.316.452.452,0,0,0,.346.1.474.474,0,0,0,.322-.186.477.477,0,0,0,.094-.36.453.453,0,0,0-.192-.306" transform="translate(-3633.165 1773.565)" fill="#e8e8e8"/></g><g transform="translate(-3619.572 -8893.07)"><path d="M3699.037-1883a.415.415,0,0,0-.306.017.4.4,0,0,0-.2.217.393.393,0,0,0,.009.3.411.411,0,0,0,.216.216.387.387,0,0,0,.307,0,.405.405,0,0,0,.217-.229.405.405,0,0,0-.01-.315.39.39,0,0,0-.229-.2" transform="translate(-3698.502 1883.026)" fill="#e8e8e8"/></g><g transform="translate(-3618.846 -8895.919)"><path d="M3730.028-2005.515a.335.335,0,0,0-.351.3.335.335,0,0,0,.3.355.327.327,0,0,0,.361-.3.327.327,0,0,0-.309-.356" transform="translate(-3729.676 2005.516)" fill="#e8e8e8"/></g><g transform="translate(-3618.962 -8898.835)"><path d="M3724.9-2130.869a.264.264,0,0,0-.2.307.264.264,0,0,0,.305.2.258.258,0,0,0,.206-.309.258.258,0,0,0-.311-.2" transform="translate(-3724.695 2130.876)" fill="#e8e8e8"/></g><g transform="translate(-3619.908 -8901.577)"><path d="M3684.135-2248.745a.192.192,0,0,0-.077.257.192.192,0,0,0,.256.079.189.189,0,0,0,.08-.259.189.189,0,0,0-.259-.078" transform="translate(-3684.036 2248.769)" fill="#e8e8e8"/></g><g transform="translate(-3621.676 -8903.988)"><path d="M3608.081-2352.383a.122.122,0,0,0,0,.17.121.121,0,0,0,.17,0,.119.119,0,0,0,0-.17.12.12,0,0,0-.171,0" transform="translate(-3608.046 2352.418)" fill="#e8e8e8"/></g><g transform="translate(-3640.075 -8894.913)"><path d="M2817.571-1962.212a.708.708,0,0,0-.49.3.768.768,0,0,0-.109.595.767.767,0,0,0,.348.495.706.706,0,0,0,.572.072.794.794,0,0,0,.453-.351.731.731,0,0,0,.095-.537.728.728,0,0,0-.31-.448.794.794,0,0,0-.558-.13" transform="translate(-2816.954 1962.22)" fill="#e8e8e8"/></g><g transform="translate(-3640.224 -8897.832)"><path d="M2811.308-2087.718a.648.648,0,0,0-.5.144.692.692,0,0,0-.244.488.693.693,0,0,0,.176.516.645.645,0,0,0,.479.21.715.715,0,0,0,.484-.188.658.658,0,0,0,.219-.446.66.66,0,0,0-.157-.471.714.714,0,0,0-.454-.253" transform="translate(-2810.559 2087.724)" fill="#e8e8e8"/></g><g transform="translate(-3639.533 -8900.689)"><path d="M2841.11-2210.562a.578.578,0,0,0-.469,0,.618.618,0,0,0-.332.357.618.618,0,0,0,.021.487.582.582,0,0,0,.358.3.64.64,0,0,0,.464-.039.6.6,0,0,0,.3-.33.6.6,0,0,0-.017-.448.639.639,0,0,0-.33-.33" transform="translate(-2840.27 2210.612)" fill="#e8e8e8"/></g><g transform="translate(-3638.043 -8903.249)"><path d="M2905.2-2320.548a.519.519,0,0,0-.4-.116.55.55,0,0,0-.37.22.551.551,0,0,0-.1.417.519.519,0,0,0,.227.348.56.56,0,0,0,.4.085.529.529,0,0,0,.341-.205.529.529,0,0,0,.1-.387.562.562,0,0,0-.2-.362" transform="translate(-2904.321 2320.669)" fill="#e8e8e8"/></g><g transform="translate(-3635.87 -8905.304)"><path d="M2998.608-2408.79a.452.452,0,0,0-.306-.192.475.475,0,0,0-.36.094.473.473,0,0,0-.186.322.451.451,0,0,0,.1.346.487.487,0,0,0,.317.171.468.468,0,0,0,.337-.089.465.465,0,0,0,.176-.3.488.488,0,0,0-.08-.351" transform="translate(-2997.752 2408.987)" fill="#e8e8e8"/></g><g transform="translate(-3633.185 -8906.684)"><path d="M3113.99-2468.056a.386.386,0,0,0-.2-.229.4.4,0,0,0-.315-.01.405.405,0,0,0-.228.217.386.386,0,0,0,0,.307.414.414,0,0,0,.216.217.4.4,0,0,0,.3.008.4.4,0,0,0,.217-.2.412.412,0,0,0,.017-.305" transform="translate(-3113.209 2468.322)" fill="#e8e8e8"/></g><g transform="translate(-3630.196 -8907.269)"><path d="M3242.386-2493.156a.326.326,0,0,0-.356-.308.327.327,0,0,0-.3.361.336.336,0,0,0,.355.3.335.335,0,0,0,.3-.351" transform="translate(-3241.725 2493.466)" fill="#e8e8e8"/></g><g transform="translate(-3627.14 -8907.013)"><path d="M3373.611-2482.127a.258.258,0,0,0-.2-.31.258.258,0,0,0-.309.205.264.264,0,0,0,.2.3.264.264,0,0,0,.308-.2" transform="translate(-3373.096 2482.443)" fill="#e8e8e8"/></g><g transform="translate(-3624.258 -8905.927)"><path d="M3497.382-2435.492a.189.189,0,0,0-.077-.259.19.19,0,0,0-.259.08.192.192,0,0,0,.079.256.192.192,0,0,0,.257-.077" transform="translate(-3497.025 2435.774)" fill="#e8e8e8"/></g></g></svg>