<svg xmlns="http://www.w3.org/2000/svg" width="23.721" height="18.667" viewBox="0 0 23.721 18.667"><g transform="translate(0.5 0.5)"><path d="M1.45,11.352a.5.5,0,0,1-.365-.158A6.971,6.971,0,0,1-.477,8.526.5.5,0,0,1-.149,7.9a.5.5,0,0,1,.626.328A5.95,5.95,0,0,0,1.6,10.269,6.883,6.883,0,0,0,5.8,5.924,5.852,5.852,0,0,0,4.813.562a.5.5,0,0,1-.3-.394L4.5.065a.5.5,0,0,1,.29-.521.5.5,0,0,1,.583.128A6.848,6.848,0,0,1,6.759,6.218a7.918,7.918,0,0,1-5.152,5.109A.5.5,0,0,1,1.45,11.352Z" transform="translate(10.852 11.099) rotate(90)" fill="#e8e8e8"/><path d="M5,11.352a.5.5,0,0,1-.5-.565l.013-.1a.5.5,0,0,1,.3-.394A5.853,5.853,0,0,0,5.8,4.928,6.881,6.881,0,0,0,1.6.584,5.96,5.96,0,0,0,.477,2.625a.5.5,0,0,1-.627.328.5.5,0,0,1-.328-.627A6.98,6.98,0,0,1,1.086-.342a.5.5,0,0,1,.522-.133A7.916,7.916,0,0,1,6.76,4.635,6.849,6.849,0,0,1,5.375,11.18.5.5,0,0,1,5,11.352Z" transform="translate(22.721 11.098) rotate(90)" fill="#e8e8e8"/><path d="M2.67,8.14A11.916,11.916,0,0,1-.058,7.824a.5.5,0,0,1-.381-.419A6.525,6.525,0,0,1,.764,2.7a.5.5,0,0,1,.822.569A5.522,5.522,0,0,0,.515,6.926,10.487,10.487,0,0,0,8.356,5.475,6.457,6.457,0,0,0,11.45.013.5.5,0,0,1,11.937-.5a.5.5,0,0,1,.512.487A7.435,7.435,0,0,1,8.916,6.3,11.207,11.207,0,0,1,2.67,8.14Z" transform="translate(9.788 3.458) rotate(90)" fill="#e8e8e8"/><path d="M11.95,8.139h-.013a.5.5,0,0,1-.487-.512A6.457,6.457,0,0,0,8.356,2.165,10.487,10.487,0,0,0,.515.713,5.522,5.522,0,0,0,1.586,4.374a.5.5,0,0,1-.822.569A6.525,6.525,0,0,1-.439.234.5.5,0,0,1-.058-.185,11.535,11.535,0,0,1,8.916,1.337a7.435,7.435,0,0,1,3.533,6.315A.5.5,0,0,1,11.95,8.139Z" transform="translate(20.576 3.458) rotate(90)" fill="#e8e8e8"/><path d="M400.388-402.785a.5.5,0,0,1-.276-.083,9.676,9.676,0,0,1-3.232-3.81,11.385,11.385,0,0,1-1.207-5.021,8.358,8.358,0,0,1,1.23-4.471,10.56,10.56,0,0,1,3.21-3.177.5.5,0,0,1,.553,0,10.559,10.559,0,0,1,3.21,3.177,8.357,8.357,0,0,1,1.23,4.471,11.384,11.384,0,0,1-1.207,5.021,9.676,9.676,0,0,1-3.233,3.81A.5.5,0,0,1,400.388-402.785Zm0-15.541a7.752,7.752,0,0,0-3.716,6.627,10.1,10.1,0,0,0,3.716,7.8,10.094,10.094,0,0,0,3.716-7.8A7.751,7.751,0,0,0,400.388-418.326Z" transform="translate(-389.027 418.931)" fill="#e8e8e8"/></g></svg>