<svg xmlns="http://www.w3.org/2000/svg" width="17.539" height="17.754" viewBox="0 0 17.539 17.754"><path d="M302.483-323.279a.5.5,0,0,1-.268-.078l-1.195-.757a.5.5,0,0,1-.2-.6,11.462,11.462,0,0,1,1.265-2.422,2.914,2.914,0,0,0,.086-1.646,3.286,3.286,0,0,1-2.249-.441,5.227,5.227,0,0,1-2.217-3.705,7.5,7.5,0,0,1,.425-3.648,12.494,12.494,0,0,0,.645-3.945.5.5,0,0,1,.343-.486.5.5,0,0,1,.565.186,13.414,13.414,0,0,0,2.541,2.643,10.67,10.67,0,0,1,1.091,1c1.68,1.875,2.178,3.693,1.941,5.165.441.09.954.207,1.552.354.905-.978,2.489-1.471,4.676-.347a7.646,7.646,0,0,1,.967.637,8.9,8.9,0,0,0,2.37,1.34.5.5,0,0,1,.332.461.5.5,0,0,1-.313.474,8.045,8.045,0,0,0-2.419,1.654A4.983,4.983,0,0,1,310-325.98a3.6,3.6,0,0,1-2.9-.565,3.062,3.062,0,0,1-1.071-1.582,6.155,6.155,0,0,0-2.045,2,6.151,6.151,0,0,0-.989,2.368l-.027.1a.5.5,0,0,1-.3.338A.5.5,0,0,1,302.483-323.279Zm-.576-1.457.269.171a6.246,6.246,0,0,1,.986-2.129,6.756,6.756,0,0,1,3.04-2.626.5.5,0,0,1,.448.034.5.5,0,0,1,.24.38,2.2,2.2,0,0,0,.814,1.566,2.689,2.689,0,0,0,2.126.375,4.149,4.149,0,0,0,1.926-1.218,11.45,11.45,0,0,1,1.721-1.34,12.023,12.023,0,0,1-1.613-1.035,7.014,7.014,0,0,0-.835-.556,3.14,3.14,0,0,0-3.025-.237c1.033.272,2.268.615,3.749,1.04a.5.5,0,0,1,.349.6.5.5,0,0,1-.578.377l-.028-.005a11.2,11.2,0,0,0-4.7-.165,4.821,4.821,0,0,0-1.376.505,7.493,7.493,0,0,0-1.285.989.5.5,0,0,1-.488.117.5.5,0,0,1-.344-.366c-.02-.084-.041-.171-.065-.261a4.756,4.756,0,0,1-.214,1.743.5.5,0,0,1-.071.149A10.389,10.389,0,0,0,301.907-324.736Zm2-4.911c.056.131.1.256.146.376a8.18,8.18,0,0,1,.848-.59,5.452,5.452,0,0,1,1.552-.6.5.5,0,0,1-.147-.295c-.44-.106-.83-.194-1.177-.266l-.153-.031a3.935,3.935,0,0,1-.887,1.289A.5.5,0,0,1,303.911-329.647Zm-4.192-9.523a16.2,16.2,0,0,1-.627,2.87,6.656,6.656,0,0,0-.4,3.177,4.4,4.4,0,0,0,1.755,3.045,2.3,2.3,0,0,0,1.861.243.5.5,0,0,1,.421.066c-.471-.874-.832-1.567-.4-2.1.3-.372.854-.472,1.95-.319a3.524,3.524,0,0,0,.037-.695,6.031,6.031,0,0,0-1.734-3.629,10.014,10.014,0,0,0-.99-.9A16.661,16.661,0,0,1,299.719-339.17Zm3.42,7.935a3.809,3.809,0,0,0,.312.7,2.888,2.888,0,0,0,.5-.687A2.721,2.721,0,0,0,303.139-331.235Z" transform="translate(-297.615 341.033)" fill="#e8e8e8"/></svg>