<svg xmlns="http://www.w3.org/2000/svg" width="27.923" height="18.576" viewBox="0 0 27.923 18.576"><path d="M-7.937.066a3.306,3.306,0,0,1-2.1-.56,1.693,1.693,0,0,1-.7-1.365.891.891,0,0,1,.415-.837,1.617,1.617,0,0,1,.824-.244.844.844,0,0,1,.442.132.5.5,0,0,1,.218.461.594.594,0,0,1-.218.448.747.747,0,0,1-.521.2,2.819,2.819,0,0,1-.336-.02.642.642,0,0,1-.3-.112v.092A1.249,1.249,0,0,0-9.657-.7,3.12,3.12,0,0,0-7.831-.29,4.7,4.7,0,0,0-6.025-.672,10.686,10.686,0,0,0-4.1-1.74q.488-.356.969-.738t1-.8a7.11,7.11,0,0,1-3-1.984,4.4,4.4,0,0,1-1.154-2.67,3.237,3.237,0,0,1,.4-1.72,3.319,3.319,0,0,1,1.318-1.3,4.323,4.323,0,0,1,2.162-.5A4.992,4.992,0,0,1,.725-10.408,6.981,6.981,0,0,1,2.808-7.818l.356-.356Q5.6-10.613,7.4-12.261t3.085-2.7Q11.773-16,12.716-16.625t1.668-1a9.15,9.15,0,0,1,1.608-.7,3.773,3.773,0,0,1,.962-.185q.237,0,.237.119,0,.053-.264.158a1.764,1.764,0,0,0-.567.448q-.369.382-1.081,1.3t-1.945,2.558Q12.1-12.287,10.2-9.736T5.511-3.52A11.371,11.371,0,0,0,9.716-5.774a8.707,8.707,0,0,0,2.571-3.573q.158-.4.211-.4t.125.112a.432.432,0,0,1,.086.27,4.092,4.092,0,0,1-.646,2,10.007,10.007,0,0,1-1.358,1.641A9.21,9.21,0,0,1,8.187-4a13.88,13.88,0,0,1-3.1,1.035L2.834.013,2-.04q-.428-.026-.692-.026A2.763,2.763,0,0,0,.9-.04L.541.013q.5-.633.989-1.233T2.492-2.4a1.705,1.705,0,0,0,.145-.25q-.211.013-.415.02t-.415.007A12.363,12.363,0,0,1-.033-2.755a11.109,11.109,0,0,1-1.641-.369q-.936.791-1.641,1.318t-1.219.844a6.891,6.891,0,0,1-1.687.778A5.992,5.992,0,0,1-7.937.066ZM3.375-3.48q3.718-4.562,6.256-7.528t4.08-4.647q1.542-1.681,2.268-2.353-.422.171-.877.369a9.521,9.521,0,0,0-1.088.58,22.654,22.654,0,0,0-2.472,1.786q-1.4,1.14-3.3,2.867T3.836-8.227l-.844.817a7.653,7.653,0,0,1,.4,1.358,7.175,7.175,0,0,1,.138,1.4A4.44,4.44,0,0,1,3.375-3.48Zm-5.194-.066Q-.91-4.324.138-5.293T2.5-7.541A6.14,6.14,0,0,0,.534-10.085a4.74,4.74,0,0,0-2.92-.976,2.894,2.894,0,0,0-1.549.435,3.275,3.275,0,0,0-1.121,1.14,2.949,2.949,0,0,0-.415,1.523,4.177,4.177,0,0,0,.91,2.571A5.7,5.7,0,0,0-1.819-3.546Zm3.7.554q.475,0,.923-.04a4.326,4.326,0,0,0,.231-.831,4.323,4.323,0,0,0,.073-.712,7.514,7.514,0,0,0-.435-2.531Q1.477-5.946.468-5.03T-1.358-3.4A11.859,11.859,0,0,0,1.885-2.993Z" transform="translate(10.731 18.51)" fill="#e8e8e8"/></svg>