<svg xmlns="http://www.w3.org/2000/svg" width="19.193" height="21.702" viewBox="0 0 19.193 21.702"><g transform="translate(-882.4 -656)"><path d="M544.594-56.255l-.692-.4,1.606-2.775,0-.012.02-.035a1.686,1.686,0,0,0,.117-.264,1.884,1.884,0,0,0-.06-1.421,1.873,1.873,0,0,0-1.362-1.052,2.4,2.4,0,0,1-1.961-2.351h.8A1.6,1.6,0,0,0,544.371-63a2.674,2.674,0,0,1,1.944,1.5,2.683,2.683,0,0,1,.087,2.026,2.535,2.535,0,0,1-.159.363.613.613,0,0,1-.044.083Z" transform="translate(349.331 720.566)" fill="#e8e8e8"/><path d="M533.929-56.255l-1.619-2.8a.615.615,0,0,1-.037-.076,2.112,2.112,0,0,1-.152-.342,2.706,2.706,0,0,1,.087-2.02,2.689,2.689,0,0,1,1.945-1.511,1.586,1.586,0,0,0,1.305-1.56h.8A2.385,2.385,0,0,1,534.3-62.22a1.886,1.886,0,0,0-1.363,1.059,1.9,1.9,0,0,0-.059,1.42,1.3,1.3,0,0,0,.108.239l.034.058,0,.02,1.6,2.769Z" transform="translate(356.139 720.566)" fill="#e8e8e8"/><path d="M536.258-16.375h-.8a1.6,1.6,0,0,0-1.305-1.565,2.675,2.675,0,0,1-1.944-1.5,2.684,2.684,0,0,1-.086-2.026l0-.005a2.726,2.726,0,0,1,.154-.346.61.61,0,0,1,.029-.06l.013-.024,1.61-2.781.692.4-1.6,2.763,0,.017-.027.048a1.875,1.875,0,0,0-.117.261,1.886,1.886,0,0,0,.061,1.42,1.874,1.874,0,0,0,1.362,1.051A2.4,2.4,0,0,1,536.258-16.375Z" transform="translate(356.139 694.077)" fill="#e8e8e8"/><path d="M543.065-16.375h-.8a2.385,2.385,0,0,1,1.961-2.347,1.886,1.886,0,0,0,1.363-1.059,1.9,1.9,0,0,0,.059-1.42,1.315,1.315,0,0,0-.108-.239l-.034-.058,0-.02-1.6-2.77.693-.4,1.619,2.8a.619.619,0,0,1,.038.076,2.122,2.122,0,0,1,.152.342,2.706,2.706,0,0,1-.086,2.021,2.688,2.688,0,0,1-1.945,1.511A1.586,1.586,0,0,0,543.065-16.375Z" transform="translate(349.331 694.077)" fill="#e8e8e8"/><path d="M550.887-20.154q-.115,0-.23-.01a2.71,2.71,0,0,1-1.8-.942,3.4,3.4,0,0,1-.226-.3.645.645,0,0,1-.038-.061l0-.006-1.617-2.8.693-.4,1.6,2.767c.013.019.022.036.028.048l0,0a2.608,2.608,0,0,0,.176.235,1.9,1.9,0,0,0,1.262.66,1.881,1.881,0,0,0,1.591-.656,2.4,2.4,0,0,1,3.014-.522l-.4.693a1.6,1.6,0,0,0-2.006.348A2.683,2.683,0,0,1,550.887-20.154Z" transform="translate(346.256 694.069)" fill="#e8e8e8"/><path d="M558.029-26.795a2.385,2.385,0,0,1-1.049-2.873,1.9,1.9,0,0,0-.235-1.709,1.914,1.914,0,0,0-1.2-.76,2.12,2.12,0,0,0-.3-.03H552v-.8h3.266a2.776,2.776,0,0,1,.427.043,2.718,2.718,0,0,1,1.7,1.081l0,.005a2.707,2.707,0,0,1,.334,2.436,1.586,1.586,0,0,0,.7,1.913Z" transform="translate(343.163 699.419)" fill="#e8e8e8"/><path d="M522.43-48.1l-1.6-2.767c-.013-.019-.022-.036-.029-.048l0,0a2.609,2.609,0,0,0-.176-.235,1.9,1.9,0,0,0-1.262-.66,1.882,1.882,0,0,0-1.591.656,2.4,2.4,0,0,1-3.014.522l.4-.693a1.6,1.6,0,0,0,2.006-.348,2.684,2.684,0,0,1,2.273-.934,2.71,2.71,0,0,1,1.8.942,3.4,3.4,0,0,1,.226.3.651.651,0,0,1,.038.06l0,.006,1.617,2.8Z" transform="translate(367.642 712.405)" fill="#e8e8e8"/><path d="M521.189-42.741h-3.266a2.774,2.774,0,0,1-.427-.043,2.718,2.718,0,0,1-1.705-1.081l0-.005a2.707,2.707,0,0,1-.334-2.436,1.587,1.587,0,0,0-.7-1.913l.4-.692a2.385,2.385,0,0,1,1.049,2.873,1.9,1.9,0,0,0,.235,1.709,1.914,1.914,0,0,0,1.2.76,2.12,2.12,0,0,0,.3.03h3.243Z" transform="translate(367.642 709.993)" fill="#e8e8e8"/><path d="M555.209-42.736l-3.211,0v-.8l3.171,0,.014,0h.066a2.066,2.066,0,0,0,.3-.031,1.9,1.9,0,0,0,1.2-.76,1.881,1.881,0,0,0,.229-1.709,2.4,2.4,0,0,1,1.053-2.872l.4.692a1.6,1.6,0,0,0-.7,1.912,2.683,2.683,0,0,1-.33,2.439,2.708,2.708,0,0,1-1.713,1.086l-.01,0a3,3,0,0,1-.387.04A.559.559,0,0,1,555.209-42.736Z" transform="translate(343.163 709.993)" fill="#e8e8e8"/><path d="M547.678-48.095l-.693-.4,1.638-2.836a2.268,2.268,0,0,1,.244-.338,2.706,2.706,0,0,1,1.794-.939,2.711,2.711,0,0,1,2.282.928,1.58,1.58,0,0,0,2,.354l.4.692a2.379,2.379,0,0,1-3.011-.526,1.905,1.905,0,0,0-1.6-.651,1.9,1.9,0,0,0-1.256.659,1.49,1.49,0,0,0-.166.229l-.035.055Z" transform="translate(346.247 712.405)" fill="#e8e8e8"/><path d="M515.16-26.8l-.4-.692a1.6,1.6,0,0,0,.7-1.912,2.683,2.683,0,0,1,.33-2.439,2.708,2.708,0,0,1,1.713-1.086l.009,0a3.006,3.006,0,0,1,.387-.04.56.56,0,0,1,.082-.005l3.211,0v.8l-3.171,0-.013,0h-.066a2.069,2.069,0,0,0-.3.031,1.9,1.9,0,0,0-1.2.76,1.88,1.88,0,0,0-.229,1.709A2.4,2.4,0,0,1,515.16-26.8Z" transform="translate(367.642 699.427)" fill="#e8e8e8"/><path d="M519.211-20.163a2.712,2.712,0,0,1-2.05-.938,1.58,1.58,0,0,0-2-.354l-.4-.692a2.378,2.378,0,0,1,3.011.526,1.9,1.9,0,0,0,1.6.651,1.9,1.9,0,0,0,1.256-.659,2.144,2.144,0,0,0,.177-.242l0-.008.018-.03,1.6-2.778.693.4L521.5-21.48l-.025.041a2.926,2.926,0,0,1-.239.327,2.706,2.706,0,0,1-1.794.939Q519.327-20.163,519.211-20.163Z" transform="translate(367.642 694.077)" fill="#e8e8e8"/><path d="M536.5-42.3a3.546,3.546,0,0,1,1.784.479,3.571,3.571,0,0,1,1.781,3.086,3.572,3.572,0,0,1-1.735,3.058.4.4,0,0,1-.085.051,3.555,3.555,0,0,1-1.745.455,3.547,3.547,0,0,1-1.784-.479,3.571,3.571,0,0,1-1.781-3.086,3.572,3.572,0,0,1,1.735-3.059.4.4,0,0,1,.085-.051A3.555,3.555,0,0,1,536.5-42.3Zm1.295,6.009.088-.051a2.769,2.769,0,0,0,1.382-2.393,2.769,2.769,0,0,0-1.382-2.393A2.71,2.71,0,0,0,536.5-41.5a2.757,2.757,0,0,0-1.3.322l-.087.05a2.769,2.769,0,0,0-1.382,2.393,2.769,2.769,0,0,0,1.382,2.393,2.711,2.711,0,0,0,1.383.371A2.757,2.757,0,0,0,537.792-36.291Z" transform="translate(355.5 705.585)" fill="#e8e8e8"/><path d="M543.065-48.949h-.8v-3.617h.8Z" transform="translate(349.331 712.635)" fill="#e8e8e8"/><path d="M543.065-19.616h-.8v-3.617h.8Z" transform="translate(349.331 693.249)" fill="#e8e8e8"/><path d="M528.278-40.412l-3.132-1.809.4-.693,3.132,1.809Z" transform="translate(360.778 706.027)" fill="#e8e8e8"/><path d="M553.681-25.745l-3.132-1.809.4-.693,3.132,1.809Z" transform="translate(343.988 696.334)" fill="#e8e8e8"/><path d="M525.545-25.745l-.4-.693,3.132-1.809.4.693Z" transform="translate(360.778 696.334)" fill="#e8e8e8"/><path d="M550.949-40.412l-.4-.693,3.132-1.809.4.693Z" transform="translate(343.988 706.027)" fill="#e8e8e8"/><path d="M540.022-33.454a1.749,1.749,0,0,1-.88-.237,1.759,1.759,0,0,1-.877-1.52,1.761,1.761,0,0,1,.678-1.386v-.188l.3,0a1.76,1.76,0,0,1,.777-.181,1.748,1.748,0,0,1,.88.237,1.759,1.759,0,0,1,.877,1.52,1.761,1.761,0,0,1-.678,1.386v.188l-.3,0A1.76,1.76,0,0,1,540.022-33.454Zm-.437-2.608-.041.024a.958.958,0,0,0-.478.828.958.958,0,0,0,.478.828.937.937,0,0,0,.479.129.958.958,0,0,0,.436-.1l.042-.024a.958.958,0,0,0,.478-.828.958.958,0,0,0-.478-.828.936.936,0,0,0-.478-.129A.958.958,0,0,0,539.584-36.061Z" transform="translate(351.974 702.061)" fill="#e8e8e8"/></g></svg>