<svg xmlns="http://www.w3.org/2000/svg" width="89.818" height="108.405" viewBox="0 0 89.818 108.405"><path d="M168.344-3039.815a2.881,2.881,0,0,1-2.877-2.875,2.882,2.882,0,0,1,2.877-2.88,2.882,2.882,0,0,1,2.877,2.88A2.881,2.881,0,0,1,168.344-3039.815Zm14.859-33.843a5.234,5.234,0,0,1,5.229-5.232,5.235,5.235,0,0,1,5.229,5.232,5.234,5.234,0,0,1-5.229,5.228A5.233,5.233,0,0,1,183.2-3073.658Zm25.317,28.088a2.882,2.882,0,0,1,2.877,2.88,2.881,2.881,0,0,1-2.877,2.875,2.881,2.881,0,0,1-2.876-2.875A2.882,2.882,0,0,1,208.52-3045.57Zm22.116,31.222a1.991,1.991,0,0,0-1.244-1.369,2.017,2.017,0,0,0-.72-.121,2,2,0,0,0-1.522.661l-8.4,5.981a1.987,1.987,0,0,0-.466,2.771,1.988,1.988,0,0,0,2.772.467l2.908-2.07c-3.686,7.531-11.105,19.662-22.655,25.273a19.447,19.447,0,0,1-3.22-.737,35.544,35.544,0,0,0-7.674-1.313v-55.9h11.544a6.864,6.864,0,0,0,6.556,4.865,6.861,6.861,0,0,0,6.852-6.851,6.86,6.86,0,0,0-6.852-6.855,6.865,6.865,0,0,0-6.556,4.865H190.419v-19.993a9.223,9.223,0,0,0,7.217-8.985,9.217,9.217,0,0,0-9.2-9.207,9.217,9.217,0,0,0-9.2,9.207,9.223,9.223,0,0,0,7.217,8.985v19.993H174.9a6.866,6.866,0,0,0-6.557-4.865,6.86,6.86,0,0,0-6.852,6.855,6.861,6.861,0,0,0,6.852,6.851,6.865,6.865,0,0,0,6.557-4.865h11.544v55.89a34.837,34.837,0,0,0-7.618,1.257,18.767,18.767,0,0,1-3.381.749c-11.51-5.663-18.906-17.786-22.575-25.285l3,2.135a1.988,1.988,0,0,0,2.772-.467,1.987,1.987,0,0,0-.466-2.771l-8.634-6.15a1.981,1.981,0,0,0-1.269-.488c-.015,0-.03,0-.045,0-.045,0-.09,0-.135.008a2.024,2.024,0,0,0-.555.113,1.991,1.991,0,0,0-1.244,1.369L143.618-3004a1.985,1.985,0,0,0,1.427,2.42,2.129,2.129,0,0,0,.5.065,1.99,1.99,0,0,0,1.923-1.49l1.192-4.615c3.657,7.89,11.779,22,25.312,28.515.892.431,2.1.459,5.936-.625a30.924,30.924,0,0,1,6.538-1.107v4.39a1.991,1.991,0,0,0,1.987,1.99,1.991,1.991,0,0,0,1.988-1.99v-4.374a31.729,31.729,0,0,1,6.576,1.148,17.8,17.8,0,0,0,4.467.9,2.854,2.854,0,0,0,1.29-.262c13.676-6.488,21.847-20.758,25.5-28.66l1.212,4.692a1.99,1.99,0,0,0,1.923,1.49,2.13,2.13,0,0,0,.5-.065,1.986,1.986,0,0,0,1.427-2.42l-2.673-10.347" transform="translate(-143.555 3082.865)" fill="#e8e8e8"/></svg>