<svg xmlns="http://www.w3.org/2000/svg" width="222.88" height="222.88" viewBox="0 0 222.88 222.88"><path d="M111.44,1A111.262,111.262,0,0,0,89.182,3.244,109.83,109.83,0,0,0,49.693,19.861,110.766,110.766,0,0,0,9.679,68.452,109.877,109.877,0,0,0,3.244,89.182a111.527,111.527,0,0,0,0,44.517,109.829,109.829,0,0,0,16.617,39.489A110.765,110.765,0,0,0,68.452,213.2a109.876,109.876,0,0,0,20.729,6.435,111.527,111.527,0,0,0,44.517,0,109.83,109.83,0,0,0,39.489-16.617A110.766,110.766,0,0,0,213.2,154.428a109.878,109.878,0,0,0,6.435-20.729,111.527,111.527,0,0,0,0-44.517A109.83,109.83,0,0,0,203.02,49.693,110.765,110.765,0,0,0,154.428,9.679,109.876,109.876,0,0,0,133.7,3.244,111.262,111.262,0,0,0,111.44,1m0-1A111.44,111.44,0,1,1,0,111.44,111.44,111.44,0,0,1,111.44,0Z" transform="translate(0 0)" fill="#d6d4c7"/></svg>