<svg xmlns="http://www.w3.org/2000/svg" width="742" height="1008" viewBox="0 0 742 1008"><g transform="translate(14345 -1514)"><rect width="742" height="1008" transform="translate(-14345 1514)" fill="#4a4a4a" opacity="0"/><path d="M295.077,1a445.7,445.7,0,0,0-59.335,3.941,411.257,411.257,0,0,0-55.254,11.3A362.827,362.827,0,0,0,130.5,34.114,303.983,303.983,0,0,0,86.976,57.773,242.573,242.573,0,0,0,51.093,86.424,188.212,188.212,0,0,0,24.03,119.27,149.221,149.221,0,0,0,6.95,155.517a130.015,130.015,0,0,0,0,77.763,149.221,149.221,0,0,0,17.08,36.247,188.21,188.21,0,0,0,27.063,32.846,242.569,242.569,0,0,0,35.884,28.651A303.983,303.983,0,0,0,130.5,354.684a362.823,362.823,0,0,0,49.985,17.874,411.252,411.252,0,0,0,55.254,11.3,445.7,445.7,0,0,0,59.335,3.941,445.7,445.7,0,0,0,59.335-3.941,411.251,411.251,0,0,0,55.254-11.3,362.823,362.823,0,0,0,49.985-17.874,303.983,303.983,0,0,0,43.527-23.659,242.565,242.565,0,0,0,35.884-28.651,188.215,188.215,0,0,0,27.063-32.846A149.221,149.221,0,0,0,583.2,233.28a130.015,130.015,0,0,0,0-77.763,149.221,149.221,0,0,0-17.08-36.247,188.218,188.218,0,0,0-27.063-32.846,242.569,242.569,0,0,0-35.884-28.651,303.983,303.983,0,0,0-43.527-23.659A362.828,362.828,0,0,0,409.666,16.24a411.255,411.255,0,0,0-55.254-11.3A445.7,445.7,0,0,0,295.077,1m0-1C458.044,0,590.154,87.035,590.154,194.4S458.044,388.8,295.077,388.8,0,301.762,0,194.4,132.111,0,295.077,0Z" transform="translate(-14269.011 1822.291)" fill="#e8e8e8"/></g></svg>